<svg width="12" height="12" viewBox="0 0 12 12" fill="none" xmlns="http://www.w3.org/2000/svg">
<path fill-rule="evenodd" clip-rule="evenodd" d="M5.98683 0.0131836C9.18283 0.0131836 11.7736 2.60401 11.7736 5.8C11.7736 8.99596 9.18283 11.5868 5.98683 11.5868C2.79087 11.5868 0.200012 8.99596 0.200012 5.8C0.200012 2.60401 2.79087 0.0131836 5.98683 0.0131836ZM6.56678 5.22132H5.40942V8.69341H6.56678V5.22132ZM5.99271 2.76192C5.5708 2.76192 5.26475 3.06628 5.26475 3.47725C5.26475 3.90484 5.56273 4.20863 5.99271 4.20863C6.40597 4.20863 6.71145 3.90484 6.71145 3.48527C6.71145 3.06628 6.40597 2.76192 5.99271 2.76192Z" fill="#93DFFC"/>
</svg>
