<svg width="14" height="15" viewBox="0 0 14 15" fill="none" xmlns="http://www.w3.org/2000/svg">
<path d="M8.78664 8.10987H4.92887C4.70291 8.10987 4.51553 7.92249 4.51553 7.69654C4.51553 7.47058 4.70291 7.2832 4.92887 7.2832H8.78664C9.0126 7.2832 9.19998 7.47058 9.19998 7.69654C9.19998 7.92249 9.0126 8.10987 8.78664 8.10987Z" fill="black"/>
<path d="M7.34273 10.314H4.92887C4.70291 10.314 4.51553 10.1266 4.51553 9.90064C4.51553 9.67468 4.70291 9.4873 4.92887 9.4873H7.34273C7.56869 9.4873 7.75607 9.67468 7.75607 9.90064C7.75607 10.1266 7.56869 10.314 7.34273 10.314Z" fill="black"/>
<path d="M8.23553 4.69224H6.03109C5.50202 4.69224 4.51553 4.69224 4.51553 3.17669C4.51553 1.66113 5.50202 1.66113 6.03109 1.66113H8.23553C8.7646 1.66113 9.75109 1.66113 9.75109 3.17669C9.75109 3.70576 9.75109 4.69224 8.23553 4.69224ZM6.03109 2.4878C5.48549 2.4878 5.3422 2.4878 5.3422 3.17669C5.3422 3.86558 5.48549 3.86558 6.03109 3.86558H8.23553C8.92442 3.86558 8.92442 3.72229 8.92442 3.17669C8.92442 2.4878 8.78113 2.4878 8.23553 2.4878H6.03109Z" fill="black"/>
<path d="M8.78665 13.5105H5.47998C2.38273 13.5105 1.75998 12.0887 1.75998 9.79055V6.48388C1.75998 3.97082 2.66931 2.89615 4.90682 2.78042C5.12727 2.76939 5.33118 2.94024 5.3422 3.1717C5.35322 3.40317 5.17687 3.59055 4.95091 3.60157C3.38576 3.68975 2.58665 4.15819 2.58665 6.48388V9.79055C2.58665 11.8297 2.98896 12.6839 5.47998 12.6839H8.78665C11.2777 12.6839 11.68 11.8297 11.68 9.79055V6.48388C11.68 4.15819 10.8809 3.68975 9.31571 3.60157C9.08976 3.59055 8.9134 3.39215 8.92442 3.16619C8.93545 2.94024 9.13385 2.76388 9.3598 2.7749C11.5973 2.89615 12.5066 3.97081 12.5066 6.47837V9.78504C12.5066 12.0887 11.8839 13.5105 8.78665 13.5105Z" fill="black"/>
</svg>
