<svg width="18" height="14" viewBox="0 0 18 14" fill="none" xmlns="http://www.w3.org/2000/svg">
<path d="M17.5408 4.17394C12.6759 -0.325732 5.10963 -0.324085 0.246676 4.17394C0.0637999 4.34309 0.0602302 4.62949 0.237065 4.80495L1.17726 5.73772C1.34585 5.90522 1.61715 5.90879 1.79233 5.74816C5.79912 2.07746 11.9878 2.07664 15.9954 5.74816C16.1706 5.90879 16.4419 5.90495 16.6105 5.73772L17.5507 4.80495C17.7272 4.62949 17.7237 4.34309 17.5408 4.17394ZM8.89373 9.58662C7.92306 9.58662 7.13637 10.3733 7.13637 11.344C7.13637 12.3147 7.92306 13.1014 8.89373 13.1014C9.8644 13.1014 10.6511 12.3147 10.6511 11.344C10.6511 10.3733 9.8644 9.58662 8.89373 9.58662ZM14.4588 7.29134C11.2939 4.49247 6.48999 4.49549 3.32865 7.29134C3.13919 7.45884 3.13315 7.74963 3.313 7.92701L4.25868 8.86034C4.42344 9.02289 4.68869 9.03388 4.86415 8.88231C7.16932 6.88962 10.6234 6.89401 12.923 8.88231C13.0985 9.03388 13.3638 9.02317 13.5285 8.86034L14.4742 7.92701C14.6543 7.74963 14.648 7.45857 14.4588 7.29134Z" fill="#93DFFC"/>
</svg>
