<svg width="62" height="59" viewBox="0 0 62 59" fill="none" xmlns="http://www.w3.org/2000/svg">
<ellipse cx="31" cy="29.5" rx="31" ry="29.5" fill="#244082"/>
<path d="M31 13C40.9422 13 49 19.4422 49 27.3929C49 30.825 47.4953 33.9665 44.9922 36.4368C45.8711 39.9243 48.8102 43.0313 48.8453 43.0658C49 43.225 49.0422 43.4603 48.9508 43.6679C48.8594 43.8754 48.6625 44 48.4375 44C43.7758 44 40.2813 41.7996 38.5516 40.4433C36.2523 41.2944 33.7 41.7857 31 41.7857C21.0578 41.7857 13 35.3435 13 27.3929C13 19.4422 21.0578 13 31 13Z" fill="white"/>
<path d="M43.5 25.5C43.5 27.9335 42.2033 30.1725 40.0363 31.8194C37.8689 33.4667 34.8525 34.5 31.5 34.5C28.1475 34.5 25.1311 33.4667 22.9637 31.8194C20.7967 30.1725 19.5 27.9335 19.5 25.5C19.5 23.0665 20.7967 20.8275 22.9637 19.1806C25.1311 17.5333 28.1475 16.5 31.5 16.5C34.8525 16.5 37.8689 17.5333 40.0363 19.1806C42.2033 20.8275 43.5 23.0665 43.5 25.5Z" fill="white" stroke="#3047EC"/>
<ellipse cx="31.5" cy="23" rx="15.5" ry="9" fill="white"/>
</svg>
