<svg width="28" height="28" viewBox="0 0 28 28" fill="none" xmlns="http://www.w3.org/2000/svg">
<g clip-path="url(#clip0_137_1794)">
<path d="M18.3277 7.87929L14.4045 11.8025L10.6551 8.0531C10.195 7.59302 9.4315 7.61031 8.95009 8.09172L8.07827 8.96354C7.59686 9.44495 7.57956 10.2085 8.03965 10.6686L11.789 14.4179L7.86584 18.3411C7.38443 18.8225 7.36714 19.5861 7.82722 20.0462L8.66042 20.8793C9.1205 21.3394 9.88402 21.3221 10.3654 20.8407L14.2886 16.9175L18.038 20.6669C18.4981 21.127 19.2616 21.1097 19.743 20.6283L20.6148 19.7565C21.0963 19.2751 21.1136 18.5115 20.6535 18.0515L16.9041 14.3021L20.8273 10.3789C21.3087 9.89748 21.326 9.13395 20.8659 8.67387L20.0327 7.84067C19.5726 7.38059 18.8091 7.39788 18.3277 7.87929Z" fill="#244082"/>
</g>
<defs>
<clipPath id="clip0_137_1794">
<rect width="19.727" height="18.8531" fill="white" transform="translate(0.706421 14.6689) rotate(-45)"/>
</clipPath>
</defs>
</svg>
