<svg width="14" height="15" viewBox="0 0 14 15" fill="none" xmlns="http://www.w3.org/2000/svg">
<path d="M9.62435 4.08693L7.91591 2.76426C7.69546 2.54382 7.19946 2.43359 6.8688 2.43359H4.77457C4.11324 2.43359 3.39679 2.92959 3.23146 3.59093L1.90879 7.61404C1.63324 8.38559 2.12924 9.04693 2.95591 9.04693H5.16035C5.49102 9.04693 5.76657 9.32248 5.71146 9.70826L5.43591 11.4718C5.32568 11.9678 5.65635 12.5189 6.15235 12.6843C6.59324 12.8496 7.14435 12.6291 7.36479 12.2985L9.62435 8.9367" stroke="black" stroke-width="0.826667" stroke-miterlimit="10"/>
<path d="M12.435 4.08715V9.48804C12.435 10.2596 12.1043 10.5352 11.3328 10.5352H10.7817C10.0101 10.5352 9.67946 10.2596 9.67946 9.48804V4.08715C9.67946 3.31559 10.0101 3.04004 10.7817 3.04004H11.3328C12.1043 3.04004 12.435 3.31559 12.435 4.08715Z" stroke="black" stroke-width="0.826667" stroke-linecap="round" stroke-linejoin="round"/>
</svg>
