<svg width="13" height="14" viewBox="0 0 13 14" fill="none" xmlns="http://www.w3.org/2000/svg">
<path d="M10.5067 6.42969H9.70363V7.23277H10.5067C10.8261 7.23312 11.1323 7.36015 11.3581 7.58598C11.584 7.81182 11.711 8.11802 11.7113 8.43739V10.0436H12.5144V8.43739C12.5138 7.90511 12.3021 7.3948 11.9257 7.01841C11.5493 6.64203 11.039 6.4303 10.5067 6.42969Z" fill="#93DFFC"/>
<path d="M9.70365 2.41441C9.9419 2.41441 10.1748 2.48506 10.3729 2.61743C10.571 2.74979 10.7254 2.93793 10.8166 3.15805C10.9078 3.37816 10.9316 3.62037 10.8851 3.85405C10.8386 4.08772 10.7239 4.30236 10.5554 4.47083C10.387 4.6393 10.1723 4.75403 9.93866 4.80051C9.70498 4.84699 9.46277 4.82314 9.24266 4.73196C9.02254 4.64079 8.8344 4.48639 8.70204 4.28829C8.56967 4.09019 8.49902 3.85729 8.49902 3.61904C8.49902 3.29955 8.62594 2.99315 8.85185 2.76724C9.07776 2.54133 9.38416 2.41441 9.70365 2.41441ZM9.70365 1.61133C9.30656 1.61133 8.91839 1.72908 8.58822 1.94969C8.25806 2.1703 8.00073 2.48386 7.84877 2.85072C7.69681 3.21758 7.65705 3.62126 7.73452 4.01072C7.81198 4.40018 8.0032 4.75792 8.28398 5.0387C8.56477 5.31948 8.92251 5.5107 9.31196 5.58817C9.70142 5.66563 10.1051 5.62587 10.472 5.47392C10.8388 5.32196 11.1524 5.06462 11.373 4.73446C11.5936 4.40429 11.7114 4.01612 11.7114 3.61904C11.7114 3.08656 11.4998 2.57589 11.1233 2.19937C10.7468 1.82285 10.2361 1.61133 9.70365 1.61133Z" fill="#93DFFC"/>
<path d="M9.30214 12.8542H8.49905V12.0512C8.4987 11.7318 8.37168 11.4256 8.14584 11.1998C7.92001 10.9739 7.61381 10.8469 7.29443 10.8465H5.68826C5.36889 10.8469 5.06269 10.9739 4.83685 11.1998C4.61102 11.4256 4.48399 11.7318 4.48364 12.0512V12.8542H3.68056V12.0512C3.68118 11.5189 3.89291 11.0086 4.26929 10.6322C4.64568 10.2558 5.15598 10.0441 5.68826 10.0435H7.29443C7.82671 10.0441 8.33702 10.2558 8.7134 10.6322C9.08978 11.0086 9.30151 11.5189 9.30214 12.0512V12.8542Z" fill="#93DFFC"/>
<path d="M6.49137 6.02818C6.72962 6.02818 6.96252 6.09883 7.16062 6.2312C7.35872 6.36356 7.51312 6.5517 7.6043 6.77182C7.69547 6.99193 7.71933 7.23414 7.67285 7.46782C7.62636 7.70149 7.51164 7.91613 7.34317 8.0846C7.1747 8.25307 6.96005 8.3678 6.72638 8.41428C6.4927 8.46076 6.25049 8.43691 6.03038 8.34573C5.81026 8.25456 5.62212 8.10016 5.48976 7.90206C5.35739 7.70396 5.28674 7.47106 5.28674 7.23281C5.28674 6.91332 5.41366 6.60692 5.63957 6.38101C5.86548 6.1551 6.17188 6.02818 6.49137 6.02818ZM6.49137 5.2251C6.09428 5.2251 5.70611 5.34285 5.37594 5.56346C5.04578 5.78407 4.78845 6.09763 4.63649 6.46449C4.48453 6.83135 4.44477 7.23503 4.52224 7.62449C4.5997 8.01395 4.79092 8.37169 5.0717 8.65247C5.35249 8.93325 5.71023 9.12447 6.09968 9.20194C6.48914 9.2794 6.89282 9.23964 7.25968 9.08769C7.62654 8.93573 7.94011 8.67839 8.16072 8.34823C8.38132 8.01806 8.49907 7.62989 8.49907 7.23281C8.49907 6.70033 8.28755 6.18966 7.91103 5.81314C7.53451 5.43662 7.02384 5.2251 6.49137 5.2251Z" fill="#93DFFC"/>
<path d="M3.27894 6.42969H2.47586C1.94358 6.43031 1.43327 6.64204 1.05689 7.01842C0.680509 7.39481 0.468782 7.90511 0.468155 8.43739V10.0436H1.27124V8.43739C1.27159 8.11802 1.39862 7.81182 1.62445 7.58598C1.85029 7.36015 2.15648 7.23312 2.47586 7.23277H3.27894V6.42969Z" fill="#93DFFC"/>
<path d="M3.27896 2.41441C3.51722 2.41441 3.75012 2.48506 3.94822 2.61743C4.14632 2.74979 4.30072 2.93793 4.39189 3.15805C4.48307 3.37816 4.50692 3.62037 4.46044 3.85405C4.41396 4.08772 4.29923 4.30236 4.13076 4.47083C3.96229 4.6393 3.74765 4.75403 3.51397 4.80051C3.2803 4.84699 3.03809 4.82314 2.81797 4.73196C2.59786 4.64079 2.40972 4.48639 2.27736 4.28829C2.14499 4.09019 2.07434 3.85729 2.07434 3.61904C2.07434 3.29955 2.20125 2.99315 2.42717 2.76724C2.65308 2.54133 2.95948 2.41441 3.27896 2.41441ZM3.27896 1.61133C2.88188 1.61133 2.49371 1.72908 2.16354 1.94969C1.83338 2.1703 1.57604 2.48386 1.42408 2.85072C1.27213 3.21758 1.23237 3.62126 1.30983 4.01072C1.3873 4.40018 1.57852 4.75792 1.8593 5.0387C2.14008 5.31948 2.49782 5.5107 2.88728 5.58817C3.27674 5.66563 3.68042 5.62587 4.04728 5.47392C4.41414 5.32196 4.7277 5.06462 4.94831 4.73446C5.16892 4.40429 5.28667 4.01612 5.28667 3.61904C5.28667 3.08656 5.07515 2.57589 4.69863 2.19937C4.32211 1.82285 3.81144 1.61133 3.27896 1.61133Z" fill="#93DFFC"/>
</svg>
