<svg width="17" height="17" viewBox="0 0 17 17" fill="none" xmlns="http://www.w3.org/2000/svg">
<path d="M6.6973 15.0404H10.5521C13.7645 15.0404 15.0495 13.7554 15.0495 10.5431V6.68823C15.0495 3.47587 13.7645 2.19092 10.5521 2.19092H6.6973C3.48493 2.19092 2.19998 3.47587 2.19998 6.68823V10.5431C2.19998 13.7554 3.48493 15.0404 6.6973 15.0404Z" stroke="#93DFFC" stroke-width="2.9137" stroke-linecap="round" stroke-linejoin="round"/>
<path d="M6.69721 7.33064C7.40689 7.33064 7.98216 6.75535 7.98216 6.04569C7.98216 5.33603 7.40689 4.76074 6.69721 4.76074C5.98755 4.76074 5.41226 5.33603 5.41226 6.04569C5.41226 6.75535 5.98755 7.33064 6.69721 7.33064Z" stroke="#93DFFC" stroke-width="2.9137" stroke-linecap="round" stroke-linejoin="round"/>
<path d="M2.63046 13.0801L5.79786 10.9535C6.30541 10.613 7.03783 10.6515 7.49396 11.0434L7.70598 11.2298C8.20711 11.6602 9.01662 11.6602 9.51775 11.2298L12.1904 8.93612C12.6916 8.50567 13.5011 8.50567 14.0022 8.93612L15.0494 9.83559" stroke="#93DFFC" stroke-width="2.9137" stroke-linecap="round" stroke-linejoin="round"/>
</svg>
