<svg width="14" height="15" viewBox="0 0 14 15" fill="none" xmlns="http://www.w3.org/2000/svg">
<path d="M4.80231 11.0857L6.51075 12.4084C6.7312 12.6288 7.2272 12.739 7.55786 12.739H9.65209C10.3134 12.739 11.0299 12.243 11.1952 11.5817L12.5179 7.55857C12.7934 6.78702 12.2974 6.12569 11.4708 6.12569H9.26631C8.93564 6.12569 8.66008 5.85013 8.7152 5.46435L8.99075 3.7008C9.10097 3.2048 8.77031 2.65369 8.27431 2.48835C7.83342 2.32302 7.28231 2.54346 7.06186 2.87413L4.80231 6.23591" stroke="black" stroke-width="0.826667" stroke-miterlimit="10"/>
<path d="M1.99165 11.0857V5.68481C1.99165 4.91325 2.32231 4.6377 3.09387 4.6377H3.64498C4.41653 4.6377 4.7472 4.91325 4.7472 5.68481V11.0857C4.7472 11.8573 4.41653 12.1328 3.64498 12.1328H3.09387C2.32231 12.1328 1.99165 11.8573 1.99165 11.0857Z" stroke="black" stroke-width="0.826667" stroke-linecap="round" stroke-linejoin="round"/>
</svg>
